<svg width="240" height="268" viewBox="0 0 240 268" fill="none" xmlns="http://www.w3.org/2000/svg">
<path fill-rule="evenodd" clip-rule="evenodd" d="M116.187 11.6525C119.063 10.6384 122.246 10.8061 125.019 12.1577L214.368 55.737L215.433 56.2942C217.536 57.4726 219.421 59.0025 221.003 60.8186L221.77 61.7472L222.478 62.7279C223.839 64.7109 224.851 66.9115 225.464 69.2358L225.74 70.4096V70.417C232.084 101.744 229.128 134.237 217.235 163.913C205.342 193.589 185.028 219.162 158.784 237.491H158.776L139.675 250.819C133.91 254.843 127.044 256.999 120.008 257C113.849 257 107.819 255.348 102.544 252.238L100.333 250.819L81.2312 237.491C54.9842 219.164 34.6609 193.596 22.7651 163.92C10.8694 134.244 7.91743 101.746 14.2607 70.417V70.4022C14.9033 67.2479 16.2687 64.2843 18.2448 61.7398L19.0118 60.8111C20.8606 58.6939 23.1165 56.9623 25.6545 55.7296L114.973 12.1577L116.187 11.6525ZM113.922 74.6706C108.45 74.6706 104.013 79.0879 104.013 84.5369V145.437C104.016 153.285 107.149 160.809 112.722 166.358L136.644 190.176C140.513 194.029 146.786 194.029 150.656 190.176C154.525 186.323 154.525 180.077 150.656 176.224L126.735 152.406C125.109 150.788 124.109 148.664 123.883 146.407L123.832 145.431V84.5369C123.832 79.0879 119.395 74.6706 113.922 74.6706Z" fill="#71B778" stroke="white" stroke-width="22" stroke-linecap="round" stroke-linejoin="round"/>
</svg>
